<svg xmlns="http://www.w3.org/2000/svg" width="45.868" height="45.869" viewBox="0 0 45.868 45.869">
  <g id="Group_325" data-name="Group 325" transform="translate(-14184.716 17637.594)">
    <path id="Path_319" data-name="Path 319" d="M959.684,377.276h0a22.934,22.934,0,0,1-22.934-22.934h0a22.934,22.934,0,0,1,22.934-22.934h0a22.934,22.934,0,0,1,22.934,22.934h0A22.934,22.934,0,0,1,959.684,377.276Z" transform="translate(13247.966 -17969)" fill="#84c8d9"/>
    <g id="Group_310" data-name="Group 310" transform="translate(14201.738 -17627.4)">
      <path id="Path_237" data-name="Path 237" d="M971.488,358.163h-3.553V370.89h-5.3V358.163h-2.5v-4.485h2.5v-2.912a6.3,6.3,0,0,1,.408-2.3,4.47,4.47,0,0,1,1.6-2.126,5.592,5.592,0,0,1,3.32-.932l3.932.029V349.8h-2.854a1.129,1.129,0,0,0-.728.233,1.226,1.226,0,0,0-.379.99v2.65h4.019Z" transform="translate(-960.13 -345.407)" fill="#fff"/>
    </g>
  </g>
</svg>
