<svg id="Group_288" data-name="Group 288" xmlns="http://www.w3.org/2000/svg" width="163.103" height="73.324" viewBox="0 0 163.103 73.324">
  <g id="Group_286" data-name="Group 286" transform="translate(69.464 59.455)">
    <path id="Path_102" data-name="Path 102" d="M0,0,13.162,13.162,26.322,0" fill="none" stroke="#fff" stroke-width="1"/>
  </g>
  <text id="I" transform="matrix(0.57, -0.822, 0.822, 0.57, 9.862, 52.351)" fill="#fff" font-size="12" font-family="Recoleta-Bold, Recoleta" font-weight="700"><tspan x="0" y="0">I</tspan></text>
  <text id="N" transform="matrix(0.699, -0.715, 0.715, 0.699, 17.773, 45.862)" fill="#fff" font-size="15" font-family="Recoleta-Bold, Recoleta" font-weight="700"><tspan x="0" y="0">N</tspan></text>
  <text id="F" transform="matrix(0.822, -0.57, 0.57, 0.822, 30.141, 33.562)" fill="#fff" font-size="15" font-family="Recoleta-Bold, Recoleta" font-weight="700"><tspan x="0" y="0">F</tspan></text>
  <text id="O" transform="translate(41.897 25.342) rotate(-23.628)" fill="#fff" font-size="15" font-family="Recoleta-Bold, Recoleta" font-weight="700"><tspan x="0" y="0">O</tspan></text>
  <text id="R" transform="translate(57.876 18.547) rotate(-12.282)" fill="#fff" font-size="15" font-family="Recoleta-Bold, Recoleta" font-weight="700"><tspan x="0" y="0">R</tspan></text>
  <text id="M" transform="translate(74.145 14.999) rotate(0.725)" fill="#fff" font-size="15" font-family="Recoleta-Bold, Recoleta" font-weight="700"><tspan x="0" y="0">M</tspan></text>
  <text id="A" transform="translate(94.204 15.68) rotate(12.282)" fill="#fff" font-size="15" font-family="Recoleta-Bold, Recoleta" font-weight="700"><tspan x="0" y="0">A</tspan></text>
  <text id="T" transform="translate(108.871 19.006) rotate(23.628)" fill="#fff" font-size="15" font-family="Recoleta-Bold, Recoleta" font-weight="700"><tspan x="0" y="0">T</tspan></text>
  <text id="I-2" data-name="I" transform="matrix(0.848, 0.53, -0.53, 0.848, 124.219, 22.741)" fill="#fff" font-size="12" font-family="Recoleta-Bold, Recoleta" font-weight="700"><tspan x="0" y="0">I</tspan></text>
  <text id="O-2" data-name="O" transform="matrix(0.748, 0.664, -0.664, 0.748, 131.022, 30.198)" fill="#fff" font-size="15" font-family="Recoleta-Bold, Recoleta" font-weight="700"><tspan x="0" y="0">O</tspan></text>
  <text id="N-2" data-name="N" transform="translate(143.898 41.815) rotate(52.523)" fill="#fff" font-size="15" font-family="Recoleta-Bold, Recoleta" font-weight="700"><tspan x="0" y="0">N</tspan></text>
</svg>
