<svg xmlns="http://www.w3.org/2000/svg" width="45.868" height="45.869" viewBox="0 0 45.868 45.869">
  <g id="Group_324" data-name="Group 324" transform="translate(-14131.78 17637.471)">
    <path id="Path_318" data-name="Path 318" d="M815.977,594.443h0a22.934,22.934,0,0,1-22.934-22.934h0a22.934,22.934,0,0,1,22.934-22.934h0a22.934,22.934,0,0,1,22.934,22.934h0A22.934,22.934,0,0,1,815.977,594.443Z" transform="translate(13338.737 -18186.045)" fill="#84c8d9"/>
    <g id="Group_311" data-name="Group 311" transform="translate(14142.017 -17627.279)">
      <path id="Path_253" data-name="Path 253" d="M810.248,568.863v-5.505a.776.776,0,0,1,.058-.393,1.147,1.147,0,0,1,.408-.189l.262-.058v6.145h1.048V562.6h.67v6.262h1.048v-6.291h13.775a4.743,4.743,0,0,1,2.432.655,5.159,5.159,0,0,1,1.806,1.762,4.677,4.677,0,0,1,.714,2.388q.028.728.029,1.747-.029,2.156-.029,1.776h-7.8a.5.5,0,0,1-.408-.175,6.708,6.708,0,0,0-2.883-1.573,6.286,6.286,0,0,0-3.2.015,6.826,6.826,0,0,0-2.883,1.587.419.419,0,0,1-.291.146h-7.718l-.146-.029v-1.107q-.029.348-.029-1.34a12.943,12.943,0,0,1,.058-1.34,4.717,4.717,0,0,1,1.951-3.524l.117-.029v5.33h1.019Zm14.853,2.824h7.368v11.445a4.786,4.786,0,0,1-.67,2.475,4.919,4.919,0,0,1-1.806,1.791,4.869,4.869,0,0,1-2.475.655H812.083a4.6,4.6,0,0,1-2.475-.641,5.138,5.138,0,0,1-1.82-1.8,4.705,4.705,0,0,1-.684-2.475V571.716h7.368a6.41,6.41,0,0,0-.815,5.883,6.62,6.62,0,0,0,5.227,4.267,6.573,6.573,0,0,0,2.781-.219,6.364,6.364,0,0,0,2.446-1.369,6.184,6.184,0,0,0,1.631-2.33,6.563,6.563,0,0,0,.5-3.028A7.056,7.056,0,0,0,825.1,571.688Zm-5.3,8.737a5.078,5.078,0,0,1-2.534-.655,4.816,4.816,0,0,1-1.835-1.8,5.016,5.016,0,0,1,0-5.008,5.034,5.034,0,0,1,1.835-1.835,4.89,4.89,0,0,1,2.519-.684,4.816,4.816,0,0,1,2.5.684,5.079,5.079,0,0,1,1.82,1.835,4.964,4.964,0,0,1-4.31,7.469Zm3.669-4.979a3.726,3.726,0,0,0-1.835-3.2,3.7,3.7,0,0,0-3.7,0,3.7,3.7,0,0,0-1.34,1.34,3.7,3.7,0,0,0,0,3.7,3.789,3.789,0,0,0,1.34,1.354,3.51,3.51,0,0,0,1.849.51,3.589,3.589,0,0,0,1.849-.5,3.688,3.688,0,0,0,1.34-1.34A3.616,3.616,0,0,0,823.47,575.445Zm6.7-8.591v-1.34a.806.806,0,0,0-.218-.6.768.768,0,0,0-.568-.218q-1.34-.028-2.708,0a.732.732,0,0,0-.583.232.9.9,0,0,0-.2.612v2.68a.8.8,0,0,0,.218.6.769.769,0,0,0,.568.219h2.679a.756.756,0,0,0,.815-.815Z" transform="translate(-807.103 -562.572)" fill="#fff"/>
    </g>
  </g>
</svg>
