<svg xmlns="http://www.w3.org/2000/svg" width="45.868" height="45.869" viewBox="0 0 45.868 45.869">
  <g id="Group_323" data-name="Group 323" transform="translate(-14076.599 17637.475)">
    <path id="Path_317" data-name="Path 317" d="M960.184,1169.439h0A22.934,22.934,0,0,1,937.25,1146.5h0a22.934,22.934,0,0,1,22.934-22.934h0a22.934,22.934,0,0,1,22.934,22.934h0A22.933,22.933,0,0,1,960.184,1169.439Z" transform="translate(13139.349 -18761.045)" fill="#84c8d9"/>
    <g id="Group_312" data-name="Group 312" transform="translate(14086.776 -17624.895)">
      <g id="Component_1_3" data-name="Component 1 – 3">
        <path id="Path_303" data-name="Path 303" d="M974.12,1146.034v.67a15.136,15.136,0,0,1-.961,5.242,15.628,15.628,0,0,1-2.854,4.776,14.158,14.158,0,0,1-4.66,3.5,15.2,15.2,0,0,1-6.378,1.34,14.911,14.911,0,0,1-4.252-.612,14.454,14.454,0,0,1-3.786-1.718q.612.059,1.252.058a10.4,10.4,0,0,0,3.466-.583,10.863,10.863,0,0,0,3.029-1.631,5.23,5.23,0,0,1-3.029-1.063,5.044,5.044,0,0,1-1.835-2.577,5.209,5.209,0,0,0,.961.087,5.4,5.4,0,0,0,1.369-.175,5.053,5.053,0,0,1-2.126-.976,5.19,5.19,0,0,1-1.5-1.835,5.451,5.451,0,0,1-.568-2.315v-.087a4.9,4.9,0,0,0,2.388.67,5.266,5.266,0,0,1-1.7-1.878,5.116,5.116,0,0,1-.626-2.49,5.2,5.2,0,0,1,.7-2.621,14.935,14.935,0,0,0,10.775,5.474,6.055,6.055,0,0,1-.116-1.194,5.1,5.1,0,0,1,.7-2.621,5.277,5.277,0,0,1,1.907-1.908,5.04,5.04,0,0,1,2.607-.714,5.183,5.183,0,0,1,3.815,1.661,10.172,10.172,0,0,0,3.32-1.281,5.061,5.061,0,0,1-.888,1.675,5.376,5.376,0,0,1-1.412,1.238,10.628,10.628,0,0,0,3.029-.845A10.95,10.95,0,0,1,974.12,1146.034Z" transform="translate(-951.23 -1140.849)" fill="#fff"/>
      </g>
    </g>
  </g>
</svg>
