<?xml version="1.0" standalone="no"?>
<!DOCTYPE svg PUBLIC "-//W3C//DTD SVG 20010904//EN"
 "http://www.w3.org/TR/2001/REC-SVG-20010904/DTD/svg10.dtd">
<svg version="1.0" xmlns="http://www.w3.org/2000/svg"
 width="700.000000pt" height="700.000000pt" viewBox="0 0 700.000000 700.000000"
 preserveAspectRatio="xMidYMid meet">
<metadata>
Created by potrace 1.11, written by Peter Selinger 2001-2013
</metadata>
<g transform="translate(0.000000,700.000000) scale(0.100000,-0.100000)"
fill="#000000" stroke="none">
<path d="M3278 6996 c-1 -2 -42 -6 -89 -10 -47 -4 -95 -8 -105 -10 -10 -2 -45
-7 -78 -11 -155 -18 -382 -71 -571 -132 -441 -142 -830 -357 -1189 -656 -97
-81 -284 -261 -346 -333 -14 -16 -50 -58 -81 -94 -214 -249 -434 -613 -560
-926 -100 -249 -184 -553 -220 -799 -11 -72 -12 -88 -28 -240 -9 -89 -7 -542
2 -600 3 -16 8 -57 12 -90 3 -33 8 -71 10 -85 2 -14 7 -45 10 -70 4 -25 10
-63 15 -85 5 -22 11 -53 14 -70 15 -84 70 -285 109 -400 169 -497 442 -948
791 -1305 114 -116 192 -190 271 -255 33 -28 68 -58 79 -67 10 -9 69 -53 130
-97 278 -200 586 -359 912 -471 108 -37 343 -103 408 -114 16 -3 52 -10 80
-15 62 -13 96 -18 155 -27 25 -3 57 -8 71 -10 169 -26 654 -25 850 2 19 3 51
7 70 10 794 108 1573 527 2110 1133 36 41 70 79 76 85 32 34 188 246 249 341
167 257 285 503 389 808 33 97 97 339 109 413 3 16 12 70 21 119 32 188 41
307 41 560 0 246 -14 434 -41 567 -2 13 -7 39 -10 58 -28 181 -106 453 -191
670 -218 554 -593 1061 -1063 1440 -488 391 -1090 652 -1700 734 -63 9 -135
18 -160 22 -46 6 -546 15 -552 10z m437 -81 c61 -4 121 -8 135 -10 14 -2 50
-6 80 -10 30 -3 78 -10 105 -15 28 -5 64 -11 80 -14 131 -19 410 -95 571 -156
137 -51 330 -139 459 -208 99 -54 357 -221 404 -261 13 -12 27 -21 30 -21 3 0
17 -10 31 -23 14 -12 50 -42 80 -67 397 -324 761 -814 963 -1300 85 -203 171
-476 193 -610 2 -14 7 -36 10 -50 3 -14 8 -38 10 -55 3 -16 9 -52 14 -80 8
-47 11 -71 25 -185 14 -118 20 -475 10 -580 -2 -25 -7 -72 -10 -105 -40 -431
-174 -877 -380 -1263 -461 -868 -1259 -1490 -2210 -1726 -109 -27 -107 -26
-280 -55 -188 -31 -319 -41 -525 -41 -148 0 -283 5 -355 15 -22 2 -62 7 -90
11 -52 6 -171 26 -265 44 -319 61 -724 218 -1030 397 -942 554 -1577 1545
-1675 2613 -3 36 -8 85 -10 110 -6 68 -6 375 0 460 6 77 31 289 39 325 2 11 7
41 10 66 11 81 74 322 120 461 139 417 365 815 647 1143 473 551 1075 921
1787 1099 53 14 111 27 127 30 17 2 66 11 110 19 70 13 117 19 240 33 17 2 86
6 155 10 69 3 126 7 127 8 3 2 162 -3 268 -9z"/>
<path d="M3503 5838 c-16 -17 -23 -42 -28 -98 -11 -109 -12 -119 -20 -191 -9
-80 -2 -105 33 -123 57 -29 96 13 106 112 3 34 9 90 13 125 11 91 10 164 -3
177 -6 6 -26 13 -45 16 -27 5 -38 1 -56 -18z"/>
<path d="M2952 5748 c-23 -11 -44 -64 -33 -84 3 -6 29 -38 56 -70 182 -212
194 -224 227 -224 36 0 68 32 68 68 -1 30 -3 34 -81 123 -31 35 -78 89 -103
119 -45 52 -80 80 -101 79 -5 0 -20 -5 -33 -11z"/>
<path d="M3935 5535 c-77 -58 -148 -114 -157 -125 -32 -39 4 -110 56 -110 22
0 275 182 314 226 12 14 22 34 22 45 0 27 -44 69 -72 69 -13 0 -82 -45 -163
-105z"/>
<path d="M2192 5537 c-11 -13 -31 -59 -37 -87 -5 -19 -81 -273 -275 -925 -174
-580 -180 -604 -180 -700 -1 -116 20 -199 75 -303 76 -145 195 -258 347 -330
50 -24 76 -42 73 -50 -4 -10 -102 -408 -120 -482 -32 -137 -124 -502 -127
-506 -3 -2 -70 12 -150 31 -81 19 -153 35 -163 35 -9 0 -27 -11 -41 -25 -19
-19 -23 -31 -18 -52 4 -16 12 -34 19 -41 13 -14 720 -192 764 -192 59 0 86 67
43 109 -22 22 -54 33 -169 60 -95 22 -143 37 -143 46 0 7 32 143 71 302 39
158 72 295 74 303 2 8 21 87 43 175 22 88 43 172 46 187 6 27 6 27 89 24 283
-10 547 134 664 360 46 89 63 142 89 284 5 26 50 255 114 580 38 189 104 529
114 580 2 14 14 75 26 135 12 61 24 120 26 133 5 23 -11 62 -30 74 -18 12 -59
9 -79 -6 -18 -14 -31 -49 -42 -116 -6 -37 -57 -296 -130 -665 -24 -121 -46
-231 -48 -245 -3 -14 -16 -83 -31 -155 -14 -71 -27 -141 -30 -155 -2 -14 -14
-72 -26 -130 -11 -58 -23 -116 -26 -130 -3 -14 -20 -56 -38 -95 -134 -281
-492 -391 -796 -243 -149 72 -275 222 -315 374 -15 58 -21 165 -11 214 6 28
70 247 120 410 l32 105 508 2 c279 0 518 4 530 7 40 10 54 69 25 107 l-18 24
-495 1 c-273 0 -498 3 -501 6 -3 3 51 193 120 424 159 530 148 489 134 516 -7
13 -17 26 -23 30 -18 12 -73 9 -84 -5z"/>
<path d="M2648 5166 c-69 -50 -16 -162 63 -134 34 12 51 58 37 100 -13 37 -70
56 -100 34z"/>
<path d="M4580 5000 c-11 -11 -20 -31 -20 -44 0 -19 38 -118 99 -261 5 -11 14
-33 21 -50 7 -16 117 -285 245 -597 129 -311 241 -592 250 -623 45 -155 5
-339 -106 -480 -73 -94 -185 -171 -304 -208 -106 -33 -272 -31 -378 6 -92 32
-167 78 -221 134 -85 90 -96 116 -220 523 -139 457 -186 614 -182 617 1 2 221
4 487 4 266 1 492 5 501 10 36 19 40 83 6 112 -19 16 -59 17 -532 17 l-512 0
-26 88 c-78 265 -108 348 -128 364 -38 31 -95 8 -105 -40 -2 -11 30 -133 72
-269 41 -136 83 -275 93 -308 10 -33 53 -172 95 -310 42 -137 78 -257 80 -265
3 -13 58 -195 116 -380 70 -222 243 -381 490 -447 70 -18 238 -24 324 -10 l50
8 98 -278 c54 -153 102 -287 107 -298 5 -11 22 -58 38 -105 17 -47 47 -131 67
-188 21 -57 36 -104 34 -106 -2 -1 -51 -20 -109 -40 -58 -21 -124 -45 -148
-53 -65 -24 -84 -82 -39 -123 27 -26 49 -23 179 25 51 18 203 73 338 121 262
93 293 110 284 161 -13 71 -51 72 -234 5 -133 -49 -135 -49 -143 -28 -35 89
-337 942 -337 951 0 5 26 24 58 42 180 99 330 311 358 509 12 81 6 195 -14
269 -11 39 -74 203 -142 365 -67 162 -163 394 -212 515 -210 509 -270 650
-285 667 -21 24 -68 23 -93 -2z"/>
<path d="M2501 4938 c-54 -20 -68 -82 -26 -123 27 -28 42 -30 79 -13 18 7 28
22 32 45 12 62 -34 110 -85 91z"/>
<path d="M2795 4920 c-61 -68 26 -170 93 -111 28 24 30 90 4 114 -26 23 -75
21 -97 -3z"/>
<path d="M3878 4533 c-54 -13 -56 -117 -3 -141 47 -22 95 13 95 68 0 53 -40
85 -92 73z"/>
</g>
</svg>
